<mxfile host="app.diagrams.net" agent="Mozilla/5.0 (Windows NT 10.0; Win64; x64) AppleWebKit/537.36 (KHTML, like Gecko) Chrome/140.0.0.0 Safari/537.36 Edg/140.0.0.0" version="28.2.5">
  <diagram name="Страница — 1" id="IfPUH7bpXmX5KGbp5eGh">
    <mxGraphModel dx="653" dy="378" grid="1" gridSize="10" guides="1" tooltips="1" connect="1" arrows="1" fold="1" page="1" pageScale="1" pageWidth="827" pageHeight="1169" math="0" shadow="0">
      <root>
        <mxCell id="0" />
        <mxCell id="1" parent="0" />
        <mxCell id="g-NqWIktPYpJOMgqSbbA-1" value="" style="rounded=1;whiteSpace=wrap;html=1;fillColor=#000000;" vertex="1" parent="1">
          <mxGeometry x="306" y="180" width="194" height="370" as="geometry" />
        </mxCell>
        <mxCell id="g-NqWIktPYpJOMgqSbbA-5" value="" style="rounded=1;whiteSpace=wrap;html=1;fillColor=light-dark(#b6b1fb, #4b2d08);strokeColor=none;" vertex="1" parent="1">
          <mxGeometry x="313" y="190" width="180" height="350" as="geometry" />
        </mxCell>
        <mxCell id="g-NqWIktPYpJOMgqSbbA-8" value="" style="rounded=0;whiteSpace=wrap;html=1;fillColor=#000000;" vertex="1" parent="1">
          <mxGeometry x="360" y="190" width="90" height="10" as="geometry" />
        </mxCell>
        <mxCell id="g-NqWIktPYpJOMgqSbbA-9" style="edgeStyle=orthogonalEdgeStyle;rounded=0;orthogonalLoop=1;jettySize=auto;html=1;exitX=0.5;exitY=1;exitDx=0;exitDy=0;" edge="1" parent="1" source="g-NqWIktPYpJOMgqSbbA-8" target="g-NqWIktPYpJOMgqSbbA-8">
          <mxGeometry relative="1" as="geometry" />
        </mxCell>
        <mxCell id="g-NqWIktPYpJOMgqSbbA-10" value="" style="ellipse;whiteSpace=wrap;html=1;aspect=fixed;" vertex="1" parent="1">
          <mxGeometry x="399" y="188" width="12" height="12" as="geometry" />
        </mxCell>
        <mxCell id="g-NqWIktPYpJOMgqSbbA-11" value="Список задач:" style="text;align=center;verticalAlign=top;resizable=0;points=[];autosize=1;strokeColor=none;fillColor=none;fontStyle=3;labelBackgroundColor=none;labelBorderColor=none;textShadow=1;fontSize=10;fontColor=light-dark(#FFFFFF,#EDEDED);fontFamily=Tahoma;horizontal=1;" vertex="1" parent="1">
          <mxGeometry x="358" y="200" width="90" height="30" as="geometry" />
        </mxCell>
        <mxCell id="g-NqWIktPYpJOMgqSbbA-14" value="&lt;font style=&quot;color: rgb(255, 0, 0); font-size: 8px;&quot;&gt;Сделать уроки&lt;/font&gt;" style="rounded=1;whiteSpace=wrap;html=1;" vertex="1" parent="1">
          <mxGeometry x="340" y="240" width="70" height="20" as="geometry" />
        </mxCell>
        <mxCell id="g-NqWIktPYpJOMgqSbbA-19" value="1" style="ellipse;whiteSpace=wrap;html=1;aspect=fixed;" vertex="1" parent="1">
          <mxGeometry x="320" y="245" width="10" height="10" as="geometry" />
        </mxCell>
        <mxCell id="g-NqWIktPYpJOMgqSbbA-20" value="2" style="ellipse;whiteSpace=wrap;html=1;aspect=fixed;" vertex="1" parent="1">
          <mxGeometry x="320" y="270" width="10" height="10" as="geometry" />
        </mxCell>
        <mxCell id="g-NqWIktPYpJOMgqSbbA-21" value="&lt;font style=&quot;color: rgb(255, 0, 0); font-size: 8px;&quot;&gt;Сходить на пары&lt;/font&gt;" style="rounded=1;whiteSpace=wrap;html=1;" vertex="1" parent="1">
          <mxGeometry x="340" y="265" width="70" height="20" as="geometry" />
        </mxCell>
        <mxCell id="g-NqWIktPYpJOMgqSbbA-22" value="3" style="ellipse;whiteSpace=wrap;html=1;aspect=fixed;" vertex="1" parent="1">
          <mxGeometry x="320" y="295" width="10" height="10" as="geometry" />
        </mxCell>
        <mxCell id="g-NqWIktPYpJOMgqSbbA-23" value="&lt;font style=&quot;font-size: 8px; color: rgb(255, 183, 58);&quot;&gt;Доделать проект&lt;/font&gt;" style="rounded=1;whiteSpace=wrap;html=1;textShadow=1;fontStyle=0" vertex="1" parent="1">
          <mxGeometry x="340" y="290" width="70" height="20" as="geometry" />
        </mxCell>
        <mxCell id="g-NqWIktPYpJOMgqSbbA-32" value="4" style="ellipse;whiteSpace=wrap;html=1;aspect=fixed;" vertex="1" parent="1">
          <mxGeometry x="320" y="320" width="10" height="10" as="geometry" />
        </mxCell>
        <mxCell id="g-NqWIktPYpJOMgqSbbA-33" value="&lt;font style=&quot;font-size: 8px; color: rgb(102, 255, 102);&quot;&gt;Подготовка к ЕГЭ&lt;/font&gt;" style="rounded=1;whiteSpace=wrap;html=1;textShadow=1;fontStyle=0" vertex="1" parent="1">
          <mxGeometry x="340" y="315" width="70" height="20" as="geometry" />
        </mxCell>
        <mxCell id="g-NqWIktPYpJOMgqSbbA-35" value="30.09.25" style="text;html=1;align=center;verticalAlign=middle;resizable=0;points=[];autosize=1;strokeColor=none;fillColor=none;fontColor=#FFFFFF;fontSize=10;fontStyle=1" vertex="1" parent="1">
          <mxGeometry x="306" y="210" width="60" height="30" as="geometry" />
        </mxCell>
        <mxCell id="g-NqWIktPYpJOMgqSbbA-37" value="" style="ellipse;whiteSpace=wrap;html=1;aspect=fixed;fillColor=#f8cecc;gradientColor=#ea6b66;strokeColor=#b85450;" vertex="1" parent="1">
          <mxGeometry x="420" y="242.5" width="15" height="15" as="geometry" />
        </mxCell>
        <mxCell id="g-NqWIktPYpJOMgqSbbA-38" value="" style="ellipse;whiteSpace=wrap;html=1;aspect=fixed;fillColor=#d5e8d4;gradientColor=#97d077;strokeColor=#82b366;" vertex="1" parent="1">
          <mxGeometry x="420" y="267.5" width="15" height="15" as="geometry" />
        </mxCell>
        <mxCell id="g-NqWIktPYpJOMgqSbbA-40" value="" style="ellipse;whiteSpace=wrap;html=1;aspect=fixed;fillColor=#f8cecc;gradientColor=#ea6b66;strokeColor=#b85450;" vertex="1" parent="1">
          <mxGeometry x="420" y="292.5" width="15" height="15" as="geometry" />
        </mxCell>
        <mxCell id="g-NqWIktPYpJOMgqSbbA-41" value="" style="ellipse;whiteSpace=wrap;html=1;aspect=fixed;fillColor=#f8cecc;gradientColor=#ea6b66;strokeColor=#b85450;" vertex="1" parent="1">
          <mxGeometry x="420" y="315" width="15" height="15" as="geometry" />
        </mxCell>
        <mxCell id="g-NqWIktPYpJOMgqSbbA-43" value="&lt;b&gt;&lt;font&gt;&lt;font style=&quot;color: rgb(255, 0, 0);&quot;&gt;1&lt;/font&gt;&lt;font style=&quot;color: light-dark(rgb(0, 0, 0), rgb(0, 118, 0));&quot;&gt;/4&lt;/font&gt;&lt;/font&gt;&lt;/b&gt;" style="rounded=0;whiteSpace=wrap;html=1;" vertex="1" parent="1">
          <mxGeometry x="440" y="505" width="43" height="20" as="geometry" />
        </mxCell>
        <mxCell id="g-NqWIktPYpJOMgqSbbA-44" value="Выполнено задач:&amp;nbsp;" style="text;html=1;align=center;verticalAlign=middle;resizable=0;points=[];autosize=1;strokeColor=none;fillColor=none;" vertex="1" parent="1">
          <mxGeometry x="305" y="500" width="130" height="30" as="geometry" />
        </mxCell>
        <mxCell id="g-NqWIktPYpJOMgqSbbA-46" value="+" style="ellipse;whiteSpace=wrap;html=1;aspect=fixed;" vertex="1" parent="1">
          <mxGeometry x="320" y="340" width="10" height="10" as="geometry" />
        </mxCell>
        <mxCell id="g-NqWIktPYpJOMgqSbbA-47" value="&lt;font style=&quot;font-size: 8px; color: rgb(255, 255, 255);&quot;&gt;&lt;b&gt;Добавьте задачу&lt;/b&gt;&lt;/font&gt;" style="text;html=1;align=center;verticalAlign=middle;resizable=0;points=[];autosize=1;" vertex="1" parent="1">
          <mxGeometry x="330" y="330" width="90" height="30" as="geometry" />
        </mxCell>
        <mxCell id="g-NqWIktPYpJOMgqSbbA-55" value="?" style="rounded=0;whiteSpace=wrap;html=1;" vertex="1" parent="1">
          <mxGeometry x="463" y="200" width="20" height="20" as="geometry" />
        </mxCell>
        <mxCell id="g-NqWIktPYpJOMgqSbbA-56" value="" style="shape=image;html=1;verticalLabelPosition=bottom;verticalAlign=top;imageAspect=1;aspect=fixed;image=img/clipart/Gear_128x128.png;imageBackground=none;" vertex="1" parent="1">
          <mxGeometry x="324" y="200" width="16" height="18.77" as="geometry" />
        </mxCell>
      </root>
    </mxGraphModel>
  </diagram>
</mxfile>
